<?xml version="1.0" encoding="utf-8"?>
<svg viewBox="0 0 43.025 43.055" xmlns="http://www.w3.org/2000/svg">
  <defs>
    <style>.cls-1{fill:#243a80;}</style>
  </defs>
  <title>Middel 12</title>
  <g id="Laag_2" data-name="Laag 2">
    <g id="Laag_1-2" data-name="Laag 1">
      <path class="cls-1" d="M9.73,2.93a6.81,6.81,0,0,0-6.8,6.8V33.27a6.82,6.82,0,0,0,6.8,6.81H33.27a6.82,6.82,0,0,0,6.81-6.81V9.73a6.82,6.82,0,0,0-6.81-6.8ZM33.27,43H9.73A9.74,9.74,0,0,1,0,33.27V9.73A9.75,9.75,0,0,1,9.73,0H33.27A9.74,9.74,0,0,1,43,9.73V33.27A9.73,9.73,0,0,1,33.27,43"/>
      <path class="cls-1" d="M34,14a3.58,3.58,0,1,1-3.58-3.58A3.58,3.58,0,0,1,34,14"/>
      <path class="cls-1" d="M33.44,30.15A2.4,2.4,0,0,1,31,32.54H29.89a2.4,2.4,0,0,1-2.4-2.39V21.73a2.41,2.41,0,0,1,2.4-2.4H31a2.41,2.41,0,0,1,2.4,2.4v8.42Z"/>
      <path class="cls-1" d="M25.08,14a3.58,3.58,0,1,1-3.58-3.58A3.58,3.58,0,0,1,25.08,14"/>
      <path class="cls-1" d="M24.47,30.15a2.39,2.39,0,0,1-2.39,2.39H20.93a2.39,2.39,0,0,1-2.4-2.39V21.73a2.4,2.4,0,0,1,2.4-2.4h1.15a2.4,2.4,0,0,1,2.39,2.4v8.42Z"/>
      <path class="cls-1" d="M16.12,14a3.58,3.58,0,1,1-3.58-3.58A3.59,3.59,0,0,1,16.12,14"/>
      <path class="cls-1" d="M15.51,30.15a2.39,2.39,0,0,1-2.4,2.39H12a2.39,2.39,0,0,1-2.4-2.39V21.73a2.4,2.4,0,0,1,2.4-2.4h1.14a2.4,2.4,0,0,1,2.4,2.4v8.42Z"/>
    </g>
  </g>
</svg>